<svg width="70" height="36" viewBox="0 0 70 36" fill="none" xmlns="http://www.w3.org/2000/svg">
<path d="M4.57386 14H0.65625V3.81818H4.53409C5.58144 3.81818 6.48627 4.02202 7.24858 4.42969C8.0142 4.83404 8.60417 5.41738 9.01847 6.17969C9.43608 6.93868 9.64489 7.84848 9.64489 8.90909C9.64489 9.9697 9.43774 10.8812 9.02344 11.6435C8.60914 12.4025 8.02249 12.9858 7.26349 13.3935C6.5045 13.7978 5.60795 14 4.57386 14ZM3.42045 11.6534H4.47443C4.97822 11.6534 5.40743 11.5722 5.76207 11.4098C6.12003 11.2474 6.39181 10.9673 6.57741 10.5696C6.76634 10.1719 6.8608 9.61837 6.8608 8.90909C6.8608 8.19981 6.76468 7.64631 6.57244 7.24858C6.38352 6.85085 6.10511 6.57079 5.73722 6.40838C5.37263 6.24597 4.92519 6.16477 4.39489 6.16477H3.42045V11.6534ZM17.8261 14H14.8432L18.204 3.81818H21.9824L25.3432 14H22.3602L20.133 6.62216H20.0534L17.8261 14ZM17.2693 9.98295H22.8773V12.0511H17.2693V9.98295ZM40.0335 3.81818V14H37.7267L34.0477 8.65057H33.988V14H31.2238V3.81818H33.5704L37.1897 9.14773H37.2693V3.81818H40.0335Z" fill="#E1E1E1"/>
<path d="M0.65625 33V22.8182H5.05114C5.80682 22.8182 6.46804 22.9673 7.0348 23.2656C7.60156 23.5639 8.04238 23.9832 8.35724 24.5234C8.67211 25.0637 8.82955 25.6951 8.82955 26.4176C8.82955 27.1468 8.66714 27.7782 8.34233 28.3118C8.02083 28.8454 7.56842 29.2564 6.98509 29.5447C6.40507 29.8331 5.72727 29.9773 4.9517 29.9773H2.3267V27.8295H4.39489C4.7197 27.8295 4.99645 27.7732 5.22514 27.6605C5.45715 27.5445 5.63447 27.3804 5.7571 27.1683C5.88305 26.9562 5.94602 26.706 5.94602 26.4176C5.94602 26.1259 5.88305 25.8774 5.7571 25.6719C5.63447 25.4631 5.45715 25.304 5.22514 25.1946C4.99645 25.0819 4.7197 25.0256 4.39489 25.0256H3.42045V33H0.65625ZM24.6074 27.9091C24.6074 29.0426 24.387 29.9988 23.9462 30.7777C23.5054 31.5533 22.9104 32.1416 22.1614 32.5426C21.4123 32.9403 20.5771 33.1392 19.6557 33.1392C18.7277 33.1392 17.8891 32.9387 17.1401 32.5376C16.3943 32.1333 15.801 31.5433 15.3602 30.7678C14.9227 29.9889 14.704 29.036 14.704 27.9091C14.704 26.7756 14.9227 25.821 15.3602 25.0455C15.801 24.2666 16.3943 23.6783 17.1401 23.2805C17.8891 22.8795 18.7277 22.679 19.6557 22.679C20.5771 22.679 21.4123 22.8795 22.1614 23.2805C22.9104 23.6783 23.5054 24.2666 23.9462 25.0455C24.387 25.821 24.6074 26.7756 24.6074 27.9091ZM21.7636 27.9091C21.7636 27.2992 21.6824 26.7855 21.52 26.3679C21.3609 25.947 21.124 25.6288 20.8091 25.4134C20.4975 25.1946 20.1131 25.0852 19.6557 25.0852C19.1983 25.0852 18.8122 25.1946 18.4973 25.4134C18.1857 25.6288 17.9488 25.947 17.7864 26.3679C17.6273 26.7855 17.5477 27.2992 17.5477 27.9091C17.5477 28.5189 17.6273 29.0343 17.7864 29.4553C17.9488 29.8729 18.1857 30.1911 18.4973 30.4098C18.8122 30.6252 19.1983 30.733 19.6557 30.733C20.1131 30.733 20.4975 30.6252 20.8091 30.4098C21.124 30.1911 21.3609 29.8729 21.52 29.4553C21.6824 29.0343 21.7636 28.5189 21.7636 27.9091ZM30.7863 33V22.8182H35.1812C35.9369 22.8182 36.5981 22.9673 37.1649 23.2656C37.7316 23.5639 38.1725 23.9832 38.4873 24.5234C38.8022 25.0637 38.9596 25.6951 38.9596 26.4176C38.9596 27.1468 38.7972 27.7782 38.4724 28.3118C38.1509 28.8454 37.6985 29.2564 37.1152 29.5447C36.5351 29.8331 35.8574 29.9773 35.0818 29.9773H32.4568V27.8295H34.525C34.8498 27.8295 35.1265 27.7732 35.3552 27.6605C35.5872 27.5445 35.7645 27.3804 35.8872 27.1683C36.0131 26.9562 36.0761 26.706 36.0761 26.4176C36.0761 26.1259 36.0131 25.8774 35.8872 25.6719C35.7645 25.4631 35.5872 25.304 35.3552 25.1946C35.1265 25.0819 34.8498 25.0256 34.525 25.0256H33.5505V33H30.7863ZM54.7375 27.9091C54.7375 29.0426 54.5171 29.9988 54.0762 30.7777C53.6354 31.5533 53.0405 32.1416 52.2914 32.5426C51.5424 32.9403 50.7072 33.1392 49.7858 33.1392C48.8577 33.1392 48.0192 32.9387 47.2701 32.5376C46.5244 32.1333 45.9311 31.5433 45.4903 30.7678C45.0528 29.9889 44.8341 29.036 44.8341 27.9091C44.8341 26.7756 45.0528 25.821 45.4903 25.0455C45.9311 24.2666 46.5244 23.6783 47.2701 23.2805C48.0192 22.8795 48.8577 22.679 49.7858 22.679C50.7072 22.679 51.5424 22.8795 52.2914 23.2805C53.0405 23.6783 53.6354 24.2666 54.0762 25.0455C54.5171 25.821 54.7375 26.7756 54.7375 27.9091ZM51.8937 27.9091C51.8937 27.2992 51.8125 26.7855 51.6501 26.3679C51.491 25.947 51.254 25.6288 50.9392 25.4134C50.6276 25.1946 50.2431 25.0852 49.7858 25.0852C49.3284 25.0852 48.9422 25.1946 48.6274 25.4134C48.3158 25.6288 48.0788 25.947 47.9164 26.3679C47.7574 26.7855 47.6778 27.2992 47.6778 27.9091C47.6778 28.5189 47.7574 29.0343 47.9164 29.4553C48.0788 29.8729 48.3158 30.1911 48.6274 30.4098C48.9422 30.6252 49.3284 30.733 49.7858 30.733C50.2431 30.733 50.6276 30.6252 50.9392 30.4098C51.254 30.1911 51.491 29.8729 51.6501 29.4553C51.8125 29.0343 51.8937 28.5189 51.8937 27.9091ZM63.0579 22.8182L65.146 29.9972H65.2255L67.3136 22.8182H70.4358L67.075 33H63.2966L59.9358 22.8182H63.0579Z" fill="#E1E1E1"/>
</svg>
